<?xml version="1.0" standalone="no"?>
<!DOCTYPE svg PUBLIC "-//W3C//DTD SVG 20010904//EN"
 "http://www.w3.org/TR/2001/REC-SVG-20010904/DTD/svg10.dtd">
<svg version="1.0" xmlns="http://www.w3.org/2000/svg"
 width="512.000000pt" height="512.000000pt" viewBox="0 0 512.000000 512.000000"
 preserveAspectRatio="xMidYMid meet">
<metadata>
Created by potrace 1.14, written by Peter Selinger 2001-2017
</metadata>
<g transform="translate(0.000000,512.000000) scale(0.100000,-0.100000)"
fill="#000000" stroke="none">
<path d="M2305 5109 c-38 -4 -87 -10 -107 -13 -21 -3 -55 -9 -75 -12 -21 -3
-69 -12 -107 -21 -37 -8 -73 -16 -80 -17 -74 -15 -288 -89 -401 -138 -376
-165 -720 -429 -974 -747 -132 -166 -197 -269 -295 -466 -139 -278 -208 -513
-251 -845 -17 -139 -13 -520 8 -650 25 -150 27 -159 53 -265 79 -312 228 -632
408 -875 14 -19 34 -46 43 -60 57 -80 227 -261 348 -371 113 -102 358 -268
512 -347 173 -89 456 -193 586 -216 15 -3 35 -7 45 -10 30 -9 195 -36 267 -44
148 -15 529 -8 650 13 17 3 59 10 95 16 135 23 341 83 492 144 633 259 1133
753 1401 1385 56 134 137 390 126 402 -1 2 2 12 8 23 6 11 14 42 17 68 4 26
11 69 16 95 19 101 25 205 25 422 -1 228 -9 313 -46 495 -224 1084 -1113 1900
-2213 2029 -119 14 -435 17 -551 5z"/>
</g>
</svg>
